PathFileType	4	(X/Y/Z)	/Users/itak/Documents/Research/Walk-IL/dataset/trc/00419_00012.trc
DataRate	CameraRate	NumFrames	NumMarkers	Units	OrigDataRate	OrigDataStartFrame	OrigNumFrames
100.000000	100.000000	4	54	mm	100.000000	65	524
Frame#	Time	RPSI			LPSI			L3			STRN			T10			C7			CLAV			RBAK			LBAK			LSHO			LUPA			LAEL			LAOL			LWTS			LWPS			LFRA			LIFD			LHPS			LHTS			RSHO			RUPA			RAEL			RAOL			RWTS			RWPS			RFRA			RIFD			RHTS			RHPS			RBHD			LFHD			RFHD			LBHD			LHIP			RHIP			RASI			LASI			LKNE			LTHI			LANK			LTIP			LTOE			LMT1			LMT5			LHEE			RKNE			RTHI			RANK			RTIP			RTOE			RMT1			RMT5			RHEE			*53			
		X1	Y1	Z1	X2	Y2	Z2	X3	Y3	Z3	X4	Y4	Z4	X5	Y5	Z5	X6	Y6	Z6	X7	Y7	Z7	X8	Y8	Z8	X9	Y9	Z9	X10	Y10	Z10	X11	Y11	Z11	X12	Y12	Z12	X13	Y13	Z13	X14	Y14	Z14	X15	Y15	Z15	X16	Y16	Z16	X17	Y17	Z17	X18	Y18	Z18	X19	Y19	Z19	X20	Y20	Z20	X21	Y21	Z21	X22	Y22	Z22	X23	Y23	Z23	X24	Y24	Z24	X25	Y25	Z25	X26	Y26	Z26	X27	Y27	Z27	X28	Y28	Z28	X29	Y29	Z29	X30	Y30	Z30	X31	Y31	Z31	X32	Y32	Z32	X33	Y33	Z33	X34	Y34	Z34	X35	Y35	Z35	X36	Y36	Z36	X37	Y37	Z37	X38	Y38	Z38	X39	Y39	Z39	X40	Y40	Z40	X41	Y41	Z41	X42	Y42	Z42	X43	Y43	Z43	X44	Y44	Z44	X45	Y45	Z45	X46	Y46	Z46	X47	Y47	Z47	X48	Y48	Z48	X49	Y49	Z49	X50	Y50	Z50	X51	Y51	Z51	X52	Y52	Z52	X53	Y53	Z53	X54	Y54	Z54	

66	0.65	-1552.780883789062	988.7348022460938	-481.0007019042969	-1569.93603515625	977.9303588867188	-611.7821655273438	-1562.38037109375	1057.228271484375	-542.0210571289062	-1325.564331054688	1213.178955078125	-559.886474609375	-1571.988891601562	1161.2685546875	-544.9644165039062	-1536.46240234375	1410.085327148438	-559.4146118164062	-1380.696044921875	1330.983764648438	-558.4186401367188	-1572.54248046875	1264.096923828125	-487.0418701171875	-1553.02392578125	1371.126098632812	-664.032470703125	-1466.509033203125	1385.821166992188	-715.3375244140625	-1478.55859375	1268.262817382812	-786.3383178710938	-1439.4873046875	1069.242919921875	-801.0999755859375	-1503.662353515625	1048.611694335938	-750.0537719726562	-1339.011474609375	865.533203125	-718.1989135742188	-1371.052612304688	840.1726684570312	-788.7926635742188	-1410.058959960938	965.993408203125	-800.4048461914062	-1321.11181640625	688.28857421875	-698.2444458007812	-1351.667602539062	758.3575439453125	-766.7354736328125	-1309.004272460938	769.9622802734375	-721.4749755859375	-1465.272338867188	1388.56103515625	-401.976318359375	-1466.956176757812	1322.8896484375	-341.6180725097656	-1433.534912109375	1059.143432617188	-304.9433898925781	-1479.697387695312	1053.590698242188	-386.1142578125	-1327.315185546875	844.6102905273438	-395.4202880859375	-1338.000854492188	830.6499633789062	-323.5374755859375	-1403.490234375	993.9423217773438	-301.9935607910156	-1327.138549804688	668.9462280273438	-397.1465454101562	-1305.401611328125	738.017333984375	-391.0749206542969	-1335.645141601562	741.6260375976562	-329.9916381835938	-1506.392456054688	1599.862670898438	-484.0790405273438	-1345.50048828125	1604.904174804688	-601.2908935546875	-1373.806762695312	1609.076049804688	-481.8665161132812	-1486.97802734375	1591.99169921875	-644.965087890625	-1491.658081054688	966.6803588867188	-731.3673095703125	-1459.983276367188	965.3276977539062	-373.3976745605469	-1331.815185546875	972.7741088867188	-438.2812805175781	-1375.020263671875	966.4281616210938	-698.37646484375	-1415.591064453125	473.6839599609375	-701.6099853515625	-1431.303955078125	614.445556640625	-717.1612548828125	-1535.138061523438	46.12600708007812	-659.7439575195312	-1473.016723632812	244.1546478271484	-692.9406127929688	-1315.328247070312	44.65417861938477	-609.5734252929688	-1395.857421875	43.804443359375	-573.2364501953125	-1409.368041992188	43.36940002441406	-678.1474609375	-1569.479370117188	41.81427764892578	-601.3037109375	-1429.588134765625	475.9250183105469	-392.3766174316406	-1385.566650390625	739.0557250976562	-376.2168884277344	-1498.162353515625	59.04310989379883	-414.8265380859375	-1425.921630859375	348.9227600097656	-406.6715087890625	-1321.41357421875	42.14951705932617	-482.8796081542969	-1397.914794921875	44.53167343139648	-510.8241577148438	-1413.716674804688	48.51618576049805	-411.9745178222656	-1573.32958984375	45.56217575073242	-464.2330627441406	nan	nan	nan	
67	0.66	-1552.059936523438	988.6001586914062	-481.7361145019531	-1569.103271484375	977.7227783203125	-612.4963989257812	-1561.761596679688	1057.033569335938	-542.763427734375	-1324.973266601562	1213.166748046875	-560.7255249023438	-1571.591674804688	1161.144897460938	-545.7098388671875	-1536.00927734375	1409.933959960938	-560.2645874023438	-1380.238403320312	1330.877563476562	-559.3006591796875	-1572.085083007812	1263.964599609375	-487.8334045410156	-1552.645385742188	1370.9501953125	-664.862548828125	-1466.146728515625	1385.627075195312	-716.2258911132812	-1478.274658203125	1267.989624023438	-787.1195068359375	-1439.2001953125	1068.9677734375	-801.8165893554688	-1503.182495117188	1048.34375	-750.5435180664062	-1338.20751953125	865.482177734375	-718.9457397460938	-1370.53125	839.9168701171875	-789.3751220703125	-1409.740966796875	965.7255859375	-801.0941162109375	-1320.268798828125	688.1387329101562	-698.7714233398438	-1351.097778320312	758.1741333007812	-767.2513427734375	-1308.3505859375	769.8544311523438	-722.236572265625	-1464.764282226562	1388.437866210938	-402.8386535644531	-1466.371826171875	1322.758422851562	-342.4656982421875	-1432.847045898438	1059.0283203125	-305.7804565429688	-1479.15966796875	1053.552001953125	-386.8926696777344	-1326.706787109375	844.3821411132812	-396.1917419433594	-1337.4599609375	830.5463256835938	-324.3332214355469	-1402.769409179688	993.8516845703125	-302.8126220703125	-1326.418823242188	668.7911376953125	-397.7596435546875	-1304.724487304688	737.8492431640625	-391.7611083984375	-1335.134521484375	741.4797973632812	-330.7221984863281	-1505.652099609375	1599.789306640625	-484.8517761230469	-1344.664428710938	1604.640502929688	-602.0044555664062	-1372.999389648438	1608.627197265625	-482.5254516601562	-1486.126586914062	1592.007080078125	-645.7039184570312	-1490.852172851562	966.4033813476562	-732.0999145507812	-1459.224487304688	965.3161010742188	-374.0742797851562	-1330.720703125	973.0597534179688	-438.8370361328125	-1374.194946289062	966.2936401367188	-699.0180053710938	-1414.615356445312	473.49267578125	-701.9478759765625	-1430.34130859375	614.2651977539062	-717.5503540039062	-1535.158203125	46.19739532470703	-659.8270874023438	-1472.51904296875	244.0500183105469	-693.1336669921875	-1315.206298828125	44.50457382202148	-609.5863037109375	-1395.964965820312	43.76094436645508	-573.26318359375	-1409.357177734375	43.32224273681641	-678.2279052734375	-1569.280151367188	41.77162170410156	-601.3387451171875	-1429.378051757812	475.9746704101562	-392.8338623046875	-1385.07861328125	739.1902465820312	-376.2656555175781	-1498.135131835938	59.05865859985352	-414.9751586914062	-1425.9013671875	348.9798583984375	-407.0025329589844	-1321.315307617188	42.07513046264648	-482.8862915039062	-1397.8681640625	44.47031021118164	-510.8337097167969	-1413.641967773438	48.54618453979492	-412.0018615722656	-1573.2841796875	45.60526657104492	-464.2910461425781	nan	nan	nan	
68	0.67	-1551.279541015625	988.5269775390625	-482.4523315429688	-1568.220581054688	977.58740234375	-613.1867065429688	-1561.047119140625	1056.85302734375	-543.499267578125	-1324.352783203125	1213.180541992188	-561.567626953125	-1571.116577148438	1161.014770507812	-546.449951171875	-1535.54541015625	1409.790405273438	-561.1500244140625	-1379.732788085938	1330.807861328125	-560.18896484375	-1571.615966796875	1263.83203125	-488.6674499511719	-1552.23974609375	1370.779418945312	-665.7285766601562	-1465.744873046875	1385.456298828125	-717.13525390625	-1477.929077148438	1267.746826171875	-787.9370727539062	-1438.8017578125	1068.731811523438	-802.5655517578125	-1502.66796875	1048.107177734375	-751.1066284179688	-1337.439819335938	865.4168090820312	-719.7255249023438	-1369.924560546875	839.6990356445312	-790.0146484375	-1409.322875976562	965.4990844726562	-801.8245239257812	-1319.503540039062	687.9413452148438	-699.3610229492188	-1350.486450195312	758.0145263671875	-767.8389282226562	-1307.671264648438	769.7478637695312	-723.0017700195312	-1464.27734375	1388.338989257812	-403.73583984375	-1465.822265625	1322.659057617188	-343.3497924804688	-1432.181030273438	1058.940673828125	-306.6729431152344	-1478.584228515625	1053.534790039062	-387.7627563476562	-1326.024047851562	844.2144165039062	-396.9742431640625	-1336.8837890625	830.4807739257812	-325.1685791015625	-1402.080932617188	993.7857055664062	-303.6818237304688	-1325.712646484375	668.6936645507812	-398.4346618652344	-1303.911987304688	737.7216186523438	-392.4584045410156	-1334.559936523438	741.3704223632812	-331.4874877929688	-1504.890380859375	1599.7412109375	-485.6696472167969	-1343.79931640625	1604.366455078125	-602.7511596679688	-1372.156494140625	1608.207763671875	-483.2165832519531	-1485.259521484375	1592.04736328125	-646.4982299804688	-1490.033447265625	966.1786499023438	-732.8270874023438	-1458.40576171875	965.3442993164062	-374.7526550292969	-1329.5830078125	973.3630981445312	-439.4210510253906	-1373.391967773438	966.1677856445312	-699.7008056640625	-1413.808715820312	473.3276062011719	-702.3926391601562	-1429.520263671875	614.1172485351562	-718.0258178710938	-1535.192749023438	46.27445983886719	-659.9276123046875	-1472.117797851562	243.9581298828125	-693.390869140625	-1315.090576171875	44.35782623291016	-609.6031494140625	-1396.089477539062	43.72212982177734	-573.3063354492188	-1409.349487304688	43.26458740234375	-678.32421875	-1569.077392578125	41.7526741027832	-601.3914794921875	-1429.204345703125	476.0386352539062	-393.2853698730469	-1384.857299804688	739.6210327148438	-375.8824462890625	-1498.132568359375	59.08976745605469	-415.0899658203125	-1425.8955078125	349.0663146972656	-407.3345031738281	-1321.234619140625	42.00954818725586	-482.896484375	-1397.824584960938	44.40838241577148	-510.8372192382812	-1413.59130859375	48.56719589233398	-412.0364074707031	-1573.240478515625	45.66528701782227	-464.3560791015625	nan	nan	nan	
69	0.68	-1550.45654296875	988.5167846679688	-483.1486511230469	-1567.3134765625	977.5213012695312	-613.8518676757812	-1560.247192382812	1056.690551757812	-544.2213134765625	-1323.72314453125	1213.209594726562	-562.4187622070312	-1570.558715820312	1160.88134765625	-547.1782836914062	-1535.070190429688	1409.65673828125	-562.063232421875	-1379.189575195312	1330.771362304688	-561.0819091796875	-1571.12841796875	1263.702758789062	-489.5338745117188	-1551.797973632812	1370.616577148438	-666.6201171875	-1465.302124023438	1385.308715820312	-718.0579833984375	-1477.511352539062	1267.538452148438	-788.7847290039062	-1438.280517578125	1068.536743164062	-803.3436279296875	-1502.11572265625	1047.90625	-751.750732421875	-1336.720458984375	865.3312377929688	-720.5402221679688	-1369.249145507812	839.522216796875	-790.7164916992188	-1408.797241210938	965.3143310546875	-802.5932006835938	-1318.811645507812	687.71044921875	-700.0172729492188	-1349.834106445312	757.8790893554688	-768.5023193359375	-1306.9716796875	769.640625	-723.77294921875	-1463.803344726562	1388.268798828125	-404.6593017578125	-1465.301025390625	1322.59619140625	-344.260986328125	-1431.537841796875	1058.8857421875	-307.6090087890625	-1477.962524414062	1053.535522460938	-388.7121276855469	-1325.272338867188	844.113525390625	-397.7698974609375	-1336.264526367188	830.4544677734375	-326.0364685058594	-1401.427490234375	993.7474365234375	-304.5923156738281	-1325.041259765625	668.6493530273438	-399.1734313964844	-1302.993530273438	737.6419067382812	-393.1754760742188	-1333.899658203125	741.3072509765625	-332.2816467285156	-1504.108520507812	1599.717529296875	-486.525390625	-1342.907348632812	1604.077026367188	-603.5236206054688	-1371.271240234375	1607.833862304688	-483.9430847167969	-1484.383056640625	1592.113891601562	-647.3428344726562	-1489.222290039062	966.005615234375	-733.5457153320312	-1457.548583984375	965.4129638671875	-375.4361877441406	-1328.452270507812	973.6500244140625	-440.0479125976562	-1372.616943359375	966.0543212890625	-700.4287719726562	-1413.1611328125	473.1843872070312	-702.9335327148438	-1428.840576171875	614.00048828125	-718.5817260742188	-1535.226440429688	46.34114456176758	-660.0402221679688	-1471.812744140625	243.8799285888672	-693.7048950195312	-1314.985717773438	44.21506500244141	-609.6221313476562	-1396.198486328125	43.70233917236328	-573.361083984375	-1409.343872070312	43.19656372070312	-678.429443359375	-1568.901000976562	41.78720474243164	-601.4575805664062	-1429.051147460938	476.1137390136719	-393.7362060546875	-1384.876953125	740.3416137695312	-375.1078796386719	-1498.152221679688	59.14439392089844	-415.1731567382812	-1425.887451171875	349.1767578125	-407.6700744628906	-1321.16748046875	41.94980621337891	-482.9094848632812	-1397.787963867188	44.34761428833008	-510.8382263183594	-1413.557250976562	48.58056640625	-412.0791320800781	-1573.199340820312	45.74695205688477	-464.4301452636719	nan	nan	nan	
